<mxfile host="Electron" modified="2023-05-08T07:28:05.763Z" agent="Mozilla/5.0 (Macintosh; Intel Mac OS X 10_15_7) AppleWebKit/537.36 (KHTML, like Gecko) draw.io/21.2.1 Chrome/112.0.5615.87 Electron/24.1.2 Safari/537.36" etag="Txlu9FjXqL48PY_buIm6" version="21.2.1" type="device">
  <diagram name="第 1 页" id="GKZHXvnerPu9qRdXW7fx">
    <mxGraphModel dx="1114" dy="765" grid="0" gridSize="10" guides="1" tooltips="1" connect="1" arrows="1" fold="1" page="1" pageScale="1" pageWidth="827" pageHeight="1169" math="0" shadow="0">
      <root>
        <mxCell id="0" />
        <mxCell id="1" parent="0" />
        <mxCell id="x1y6CtWlQjltZdef4_E1-5" value="" style="edgeStyle=orthogonalEdgeStyle;rounded=0;orthogonalLoop=1;jettySize=auto;html=1;" edge="1" parent="1" source="x1y6CtWlQjltZdef4_E1-1" target="x1y6CtWlQjltZdef4_E1-3">
          <mxGeometry relative="1" as="geometry" />
        </mxCell>
        <mxCell id="x1y6CtWlQjltZdef4_E1-6" style="edgeStyle=orthogonalEdgeStyle;rounded=0;orthogonalLoop=1;jettySize=auto;html=1;entryX=0;entryY=0.5;entryDx=0;entryDy=0;" edge="1" parent="1" source="x1y6CtWlQjltZdef4_E1-1" target="x1y6CtWlQjltZdef4_E1-2">
          <mxGeometry relative="1" as="geometry">
            <Array as="points">
              <mxPoint x="325" y="270" />
            </Array>
          </mxGeometry>
        </mxCell>
        <mxCell id="x1y6CtWlQjltZdef4_E1-7" style="edgeStyle=orthogonalEdgeStyle;rounded=0;orthogonalLoop=1;jettySize=auto;html=1;entryX=-0.017;entryY=0.65;entryDx=0;entryDy=0;entryPerimeter=0;" edge="1" parent="1" source="x1y6CtWlQjltZdef4_E1-1" target="x1y6CtWlQjltZdef4_E1-4">
          <mxGeometry relative="1" as="geometry">
            <Array as="points">
              <mxPoint x="320" y="459" />
            </Array>
          </mxGeometry>
        </mxCell>
        <mxCell id="x1y6CtWlQjltZdef4_E1-1" value="Runc" style="rounded=1;whiteSpace=wrap;html=1;direction=south;fillColor=#f8cecc;strokeColor=#b85450;" vertex="1" parent="1">
          <mxGeometry x="300" y="310" width="50" height="100" as="geometry" />
        </mxCell>
        <mxCell id="x1y6CtWlQjltZdef4_E1-2" value="cgroup&lt;br&gt;限制资源使用" style="rounded=1;whiteSpace=wrap;html=1;fillColor=#dae8fc;strokeColor=#6c8ebf;" vertex="1" parent="1">
          <mxGeometry x="430" y="240" width="120" height="60" as="geometry" />
        </mxCell>
        <mxCell id="x1y6CtWlQjltZdef4_E1-3" value="seccomp&lt;br&gt;系统调用限制" style="rounded=1;whiteSpace=wrap;html=1;fillColor=#dae8fc;strokeColor=#6c8ebf;" vertex="1" parent="1">
          <mxGeometry x="430" y="330" width="120" height="60" as="geometry" />
        </mxCell>
        <mxCell id="x1y6CtWlQjltZdef4_E1-4" value="namespace&lt;br&gt;进程空间、网络、文件系统隔离" style="rounded=1;whiteSpace=wrap;html=1;fillColor=#dae8fc;strokeColor=#6c8ebf;" vertex="1" parent="1">
          <mxGeometry x="430" y="420" width="120" height="60" as="geometry" />
        </mxCell>
      </root>
    </mxGraphModel>
  </diagram>
</mxfile>
